HIERARCHY
ROOT Hips
{
    OFFSET 0.000000 0.000000 0.000000
    CHANNELS 6 Xposition Yposition Zposition Zrotation Xrotation Yrotation
    JOINT Spine
    {
        OFFSET -0.000000 7.236184 0.000000
        CHANNELS 3 Zrotation Xrotation Yrotation
        JOINT Spine1
        {
            OFFSET -0.000000 20.420147 0.000000
            CHANNELS 3 Zrotation Xrotation Yrotation
            JOINT Neck
            {
                OFFSET -0.000000 20.336288 1.848754
                CHANNELS 3 Zrotation Xrotation Yrotation
                JOINT Head
                {
                    OFFSET -0.000000 12.354461 -1.764923
                    CHANNELS 3 Zrotation Xrotation Yrotation
                    End Site
                    {
                        OFFSET -0.000000 22.061537 0.000000
                    }
                }
            }
            JOINT LeftShoulder
            {
                OFFSET 3.573296 18.396038 -0.314103
                CHANNELS 3 Zrotation Xrotation Yrotation
                JOINT LeftArm
                {
                    OFFSET 10.880760 0.000000 0.000000
                    CHANNELS 3 Zrotation Xrotation Yrotation
                    JOINT LeftForeArm
                    {
                        OFFSET 27.185530 0.000000 0.000000
                        CHANNELS 3 Zrotation Xrotation Yrotation
                        JOINT LeftHand
                        {
                            OFFSET 27.825975 0.000000 0.000000
                            CHANNELS 3 Zrotation Xrotation Yrotation
                            End Site
                            {
                                OFFSET 13.236923 0.000000 0.000000
                            }
                        }
                    }
                }
            }
            JOINT RightShoulder
            {
                OFFSET -3.474926 18.396038 -0.314103
                CHANNELS 3 Zrotation Xrotation Yrotation
                JOINT RightArm
                {
                    OFFSET -10.880760 0.000000 0.000000
                    CHANNELS 3 Zrotation Xrotation Yrotation
                    JOINT RightForeArm
                    {
                        OFFSET -27.185530 0.000000 0.000000
                        CHANNELS 3 Zrotation Xrotation Yrotation
                        JOINT RightHand
                        {
                            OFFSET -27.825975 0.000000 0.000000
                            CHANNELS 3 Zrotation Xrotation Yrotation
                            End Site
                            {
                                OFFSET -13.236923 0.000000 0.000000
                            }
                        }
                    }
                }
            }
        }
    }
    JOINT LeftUpLeg
    {
        OFFSET 8.824615 0.000000 0.000000
        CHANNELS 3 Zrotation Xrotation Yrotation
        JOINT LeftLeg
        {
            OFFSET -0.000000 -35.111282 0.000000
            CHANNELS 3 Zrotation Xrotation Yrotation
            JOINT LeftFoot
            {
                OFFSET -0.000000 -42.324711 0.000000
                CHANNELS 3 Zrotation Xrotation Yrotation
                JOINT LeftToeBase
                {
                    OFFSET -0.000000 -5.735999 13.236923
                    CHANNELS 3 Zrotation Xrotation Yrotation
                    End Site
                    {
                        OFFSET -0.000000 0.000000 3.529846
                    }
                }
            }
        }
    }
    JOINT RightUpLeg
    {
        OFFSET -8.824615 0.000000 0.000000
        CHANNELS 3 Zrotation Xrotation Yrotation
        JOINT RightLeg
        {
            OFFSET -0.000000 -35.111282 0.000000
            CHANNELS 3 Zrotation Xrotation Yrotation
            JOINT RightFoot
            {
                OFFSET -0.000000 -42.324711 0.000000
                CHANNELS 3 Zrotation Xrotation Yrotation
                JOINT RightToeBase
                {
                    OFFSET -0.000000 -5.735999 13.236923
                    CHANNELS 3 Zrotation Xrotation Yrotation
                    End Site
                    {
                        OFFSET -0.000000 0.000000 3.529846
                    }
                }
            }
        }
    }
}
MOTION
Frames:    12
Frame Time:    0.008333
-8.946758    80.928513    107.202171    -0.686286    -5.697713    -177.702713    -0.665589    -13.564932    0.821136    -1.162089    7.357180    0.975099    3.050743    1.873729    -0.380729    3.207021    -10.336493    -0.059790    -0.656631    19.239952    -2.352705    -37.013126    47.069363    -46.859711    -0.436607    -3.203267    -16.822651    17.415121    -2.950157    2.076435    10.014574    20.057508    -6.567688    29.806805    47.339054    47.829350    -0.533770    -8.203129    19.202362    -13.249513    -7.620184    -4.288077    -0.154207    -8.002557    -6.255710    -1.971341    13.936935    -0.654814    -0.103733    -11.787171    -4.519453    -0.832794    1.027390    0.921430    -0.936811    -2.019262    3.727075    3.803266    3.412854    2.620159    -5.603543    -6.619642    -14.150331    -0.834745    0.785138    0.901875    
-8.953103    80.924736    107.160225    -0.676703    -5.709528    -177.686493    -0.678883    -13.587638    0.809805    -1.153103    7.406137    0.965376    3.067944    1.733925    -0.364781    3.165077    -10.486790    -0.054969    -0.649814    19.261986    -2.370417    -37.028973    46.996197    -46.850082    -0.506668    -3.255926    -16.835289    17.272692    -3.012553    2.098156    10.008686    20.042969    -6.560356    29.831266    47.292179    47.800644    -0.386112    -8.563155    19.394064    -13.092042    -8.001867    -4.365852    -0.139098    -7.962779    -6.278204    -1.999099    13.898333    -0.606501    -0.085716    -11.797693    -4.558924    -0.835968    1.024768    0.924946    -0.921790    -2.016596    3.718863    3.790598    3.447612    2.620045    -5.613873    -6.659939    -14.165435    -0.839851    0.784973    0.907392    
-8.959412    80.921013    107.118942    -0.667457    -5.721656    -177.671158    -0.691675    -13.609681    0.798981    -1.144692    7.454379    0.956057    3.084361    1.594879    -0.349509    3.125012    -10.636333    -0.050437    -0.643563    19.283484    -2.386977    -37.049698    46.920399    -46.835850    -0.574962    -3.310623    -16.849586    17.130098    -3.077281    2.116913    10.002673    20.028696    -6.552940    29.854534    47.246338    47.772861    -0.237922    -8.922578    19.587297    -12.927659    -8.384881    -4.435983    -0.124317    -7.923674    -6.301440    -2.027362    13.859675    -0.553379    -0.068395    -11.808012    -4.601598    -0.839135    1.022241    0.928454    -0.906865    -2.014611    3.708838    3.777280    3.481920    2.618515    -5.622792    -6.699908    -14.176275    -0.844960    0.784817    0.912912    
-8.965753    80.917343    107.078384    -0.658817    -5.734498    -177.657364    -0.703744    -13.631079    0.788821    -1.137285    7.502219    0.947530    3.100231    1.455767    -0.335010    3.086614    -10.786704    -0.046474    -0.638213    19.304310    -2.401679    -37.080433    46.838097    -46.812695    -0.641289    -3.369029    -16.867052    16.985453    -3.146284    2.130811    9.996387    20.014744    -6.544861    29.876165    47.201454    47.745934    -0.088980    -9.283505    19.786818    -12.749375    -8.771797    -4.496558    -0.110128    -7.885341    -6.326458    -2.056946    13.820454    -0.490844    -0.051953    -11.818048    -4.650343    -0.842186    1.019965    0.931833    -0.892130    -2.013801    3.695572    3.762745    3.515599    2.614522    -5.629326    -6.739577    -14.179676    -0.850203    0.784491    0.918576    
-8.972099    80.913742    107.038902    -0.650955    -5.748177    -177.645706    -0.714774    -13.651264    0.779719    -1.131102    7.549131    0.939912    3.115269    1.317093    -0.321689    3.050344    -10.938059    -0.043105    -0.634504    19.323853    -2.413978    -37.124722    46.746933    -46.777054    -0.705275    -3.430948    -16.888775    16.838005    -3.219541    2.138137    9.990095    20.001486    -6.535591    29.895430    47.157864    47.719803    0.058127    -9.642844    19.995317    -12.552752    -9.159657    -4.543897    -0.096777    -7.848085    -6.353615    -2.088142    13.780711    -0.414780    -0.036992    -11.827746    -4.708357    -0.845100    1.017786    0.935062    -0.878035    -2.014288    3.679309    3.747436    3.547958    2.608004    -5.633238    -6.778409    -14.175119    -0.855515    0.784068    0.924316    
-8.978467    80.910233    107.000542    -0.643939    -5.762851    -177.636551    -0.724655    -13.670105    0.771830    -1.126044    7.595192    0.933459    3.129168    1.178597    -0.309691    3.016357    -11.091374    -0.040436    -0.632508    19.341927    -2.423744    -37.184246    46.645348    -46.727745    -0.767284    -3.495896    -16.915901    16.685562    -3.296667    2.138952    9.983470    19.989061    -6.524946    29.912081    47.115425    47.694736    0.200918    -9.997562    20.216179    -12.332794    -9.545567    -4.574234    -0.084311    -7.811984    -6.383268    -2.121397    13.740335    -0.322424    -0.023651    -11.837132    -4.777628    -0.847869    1.016143    0.938127    -0.865314    -2.015906    3.661913    3.732618    3.578396    2.600077    -5.635288    -6.816057    -14.165200    -0.860960    0.783800    0.930199    
-8.984859    80.906830    106.963257    -0.637703    -5.778884    -177.630127    -0.733345    -13.687529    0.765302    -1.121822    7.640295    0.928249    3.141455    1.039618    -0.299043    2.984759    -11.247921    -0.038495    -0.632142    19.357605    -2.431328    -37.259396    46.533413    -46.663757    -0.828381    -3.563466    -16.950254    16.524736    -3.377293    2.134366    9.976505    19.977747    -6.512315    29.926832    47.073193    47.669621    0.336497    -10.344001    20.453239    -12.084313    -9.925788    -4.584780    -0.072750    -7.777353    -6.415141    -2.156728    13.699449    -0.211774    -0.012160    -11.846409    -4.860229    -0.850540    1.014696    0.941085    -0.854289    -2.018771    3.645035    3.719011    3.606530    2.590603    -5.635790    -6.852376    -14.151175    -0.866585    0.783521    0.936277    
-8.991233    80.903587    106.927299    -0.632266    -5.796413    -177.626663    -0.740822    -13.703634    0.760216    -1.118101    7.684170    0.924349    3.151764    0.901864    -0.289782    2.955584    -11.408545    -0.037091    -0.633165    19.370642    -2.437151    -37.347076    46.413059    -46.586994    -0.889543    -3.633030    -16.993986    16.352930    -3.460671    2.126812    9.968766    19.967735    -6.496758    29.941387    47.029934    47.643135    0.461343    -10.674870    20.707411    -11.805449    -10.292522    -4.573699    -0.062267    -7.744897    -6.448362    -2.193607    13.658704    -0.084456    -0.002583    -11.855607    -4.955218    -0.853052    1.013446    0.943866    -0.845472    -2.022616    3.630448    3.707598    3.631103    2.580006    -5.635182    -6.886509    -14.134899    -0.872342    0.783086    0.942497    
-8.997629    80.900513    106.892372    -0.627514    -5.815716    -177.626114    -0.747014    -13.718429    0.756547    -1.114923    7.726979    0.921794    3.160335    0.764142    -0.281601    2.928097    -11.575139    -0.036222    -0.634815    19.380358    -2.441700    -37.444080    46.286144    -46.499241    -0.953036    -3.705302    -17.050276    16.164766    -3.547442    2.119962    9.960366    19.959110    -6.477519    29.957769    46.982838    47.613487    0.575108    -10.988008    20.982710    -11.492653    -10.643610    -4.540150    -0.052863    -7.714632    -6.481820    -2.231261    13.618068    0.056697    0.005028    -11.864861    -5.060972    -0.855396    1.012489    0.946462    -0.838749    -2.027431    3.618303    3.698328    3.651968    2.567526    -5.633916    -6.918595    -14.115876    -0.878319    0.782779    0.948955    
-9.004012    80.897644    106.858734    -0.623425    -5.836985    -177.628479    -0.752055    -13.732121    0.754402    -1.111650    7.768394    0.920478    3.166584    0.628212    -0.274510    2.902339    -11.748298    -0.035479    -0.636741    19.386545    -2.445751    -37.544922    46.156269    -46.403782    -1.020187    -3.780006    -17.122339    15.957220    -3.637064    2.117650    9.950579    19.951761    -6.453899    29.978403    46.929527    47.578991    0.677296    -11.277268    21.279251    -11.149124    -10.972355    -4.485081    -0.044607    -7.687637    -6.513330    -2.268182    13.578644    0.202517    0.011133    -11.874249    -5.170624    -0.857497    1.011597    0.948788    -0.834070    -2.033410    3.608377    3.691108    3.668802    2.552699    -5.631724    -6.948432    -14.093344    -0.884495    0.782671    0.955629    
-9.010453    80.894936    106.825897    -0.619824    -5.860328    -177.633560    -0.755976    -13.744658    0.753615    -1.108088    7.808840    0.920404    3.170930    0.492381    -0.267947    2.876878    -11.930544    -0.034949    -0.638445    19.389982    -2.449705    -37.644608    46.024162    -46.303917    -1.093599    -3.858443    -17.214399    15.723531    -3.731051    2.123454    9.938948    19.945032    -6.424833    30.006050    46.866673    47.537270    0.770786    -11.543656    21.602331    -10.773491    -11.279942    -4.410238    -0.037445    -7.663903    -6.540835    -2.302796    13.540915    0.343987    0.016265    -11.884210    -5.277525    -0.859435    1.010974    0.950934    -0.831083    -2.040257    3.600497    3.685544    3.681386    2.534084    -5.628400    -6.976320    -14.065917    -0.890928    0.782475    0.962579    
-9.016888    80.892433    106.794167    -0.616612    -5.885549    -177.641113    -0.758713    -13.755993    0.754136    -1.104036    7.847745    0.921476    3.173580    0.359168    -0.261742    2.851023    -12.121415    -0.034338    -0.639421    19.391409    -2.454322    -37.738033    45.891861    -46.203316    -1.174599    -3.939626    -17.328938    15.461567    -3.828422    2.139466    9.924905    19.938625    -6.389979    30.041559    46.792660    47.488289    0.857115    -11.783478    21.950689    -10.373214    -11.562008    -4.320614    -0.031316    -7.644057    -6.562295    -2.333533    13.505680    0.471565    0.020851    -11.894596    -5.374497    -0.861084    1.010021    0.952760    -0.829792    -2.047668    3.595367    3.681897    3.689242    2.511905    -5.624396    -7.001835    -14.034720    -0.897513    0.782307    0.969694    
